{
  "accessors": [
    {
      "bufferView": 3,
      "componentType": 5126,
      "count": 4246,
      "max": [
        28.000802993774414,
        9.868642807006836,
        44.52687072753906
      ],
      "min": [
        -28.00079917907715,
        -10.856804847717285,
        -15.651975631713867
      ],
      "type": "VEC3"
    },
    {
      "bufferView": 3,
      "byteOffset": 50952,
      "componentType": 5126,
      "count": 4246,
      "max": [
        0.9999945163726807,
        0.9986553192138672,
        0.9991410374641418
      ],
      "min": [
        -0.9999945759773254,
        -0.9996512532234192,
        -0.9884795546531677
      ],
      "type": "VEC3"
    },
    {
      "bufferView": 4,
      "componentType": 5126,
      "count": 4246,
      "max": [
        0.9999658465385437,
        0.9981606602668762,
        0.9987831711769104,
        1.0
      ],
      "min": [
        -0.9999658465385437,
        -0.9931440949440002,
        -0.9999028444290161,
        -1.0
      ],
      "type": "VEC4"
    },
    {
      "bufferView": 2,
      "componentType": 5126,
      "count": 4246,
      "max": [
        0.986969530582428,
        0.9942609667778015
      ],
      "min": [
        0.011804025620222092,
        0.030413389205932617
      ],
      "type": "VEC2"
    },
    {
      "bufferView": 1,
      "componentType": 5125,
      "count": 21720,
      "type": "SCALAR"
    },
    {
      "bufferView": 5,
      "componentType": 5126,
      "count": 50,
      "max": [
        1.0,
        0.8078402280807495,
        0.8229225277900696,
        0.0,
        0.8619375824928284,
        1.0,
        0.5652222633361816,
        0.0,
        0.7934457063674927,
        0.9508421421051025,
        1.0,
        0.0,
        27.13690948486328,
        20.237672805786133,
        29.221315383911133,
        1.0
      ],
      "min": [
        -0.8884567618370056,
        -0.8078402280807495,
        -0.8229225277900696,
        0.0,
        -0.8619375824928284,
        0.01747371256351471,
        -0.3170309364795685,
        0.0,
        -0.7934457063674927,
        -0.5507507920265198,
        -0.9899919033050537,
        0.0,
        -27.13690948486328,
        -41.54102325439453,
        -12.543970108032227,
        1.0
      ],
      "type": "MAT4"
    },
    {
      "bufferView": 0,
      "componentType": 5123,
      "count": 4246,
      "type": "VEC4"
    },
    {
      "bufferView": 4,
      "byteOffset": 67936,
      "componentType": 5126,
      "count": 4246,
      "max": [
        1.0,
        0.496787965297699,
        0.31402891874313354,
        0.21871039271354675
      ],
      "min": [
        0.2931305468082428,
        0.0,
        0.0,
        0.0
      ],
      "type": "VEC4"
    }
  ],
  "asset": {
    "extras": {
      "author": "DJMaesen (https://sketchfab.com/bumstrum)",
      "license": "CC-BY-4.0 (http://creativecommons.org/licenses/by/4.0/)",
      "source": "https://sketchfab.com/3d-models/first-person-arms-e3c42c05b22944e5839deb8e003f0987",
      "title": "First Person arms"
    },
    "generator": "Sketchfab-12.66.0",
    "version": "2.0"
  },
  "bufferViews": [
    {
      "buffer": 0,
      "byteLength": 33968,
      "byteStride": 8,
      "name": "shortBufferViews",
      "target": 34962
    },
    {
      "buffer": 0,
      "byteLength": 86880,
      "byteOffset": 33968,
      "name": "floatBufferViews",
      "target": 34963
    },
    {
      "buffer": 0,
      "byteLength": 33968,
      "byteOffset": 120848,
      "byteStride": 8,
      "name": "floatBufferViews",
      "target": 34962
    },
    {
      "buffer": 0,
      "byteLength": 101904,
      "byteOffset": 154816,
      "byteStride": 12,
      "name": "floatBufferViews",
      "target": 34962
    },
    {
      "buffer": 0,
      "byteLength": 135872,
      "byteOffset": 256720,
      "byteStride": 16,
      "name": "floatBufferViews",
      "target": 34962
    },
    {
      "buffer": 0,
      "byteLength": 3200,
      "byteOffset": 392592,
      "name": "floatBufferViews"
    }
  ],
  "buffers": [
    {
      "byteLength": 395792,
      "uri": "scene.bin"
    }
  ],
  "images": [
    {
      "uri": "textures/arms_baseColor.png"
    },
    {
      "uri": "textures/arms_metallicRoughness.png"
    },
    {
      "uri": "textures/arms_normal.png"
    }
  ],
  "materials": [
    {
      "name": "arms",
      "normalTexture": {
        "index": 2
      },
      "occlusionTexture": {
        "index": 1
      },
      "pbrMetallicRoughness": {
        "baseColorTexture": {
          "index": 0
        },
        "metallicFactor": 0.0,
        "metallicRoughnessTexture": {
          "index": 1
        },
        "roughnessFactor": 0.8286135989152972
      }
    }
  ],
  "meshes": [
    {
      "name": "armsmesh_arms_0",
      "primitives": [
        {
          "attributes": {
            "JOINTS_0": 6,
            "NORMAL": 1,
            "POSITION": 0,
            "TANGENT": 2,
            "TEXCOORD_0": 3,
            "TEXCOORD_1": 3,
            "WEIGHTS_0": 7
          },
          "indices": 4,
          "material": 0,
          "mode": 4
        }
      ]
    }
  ],
  "nodes": [
    {
      "children": [
        1
      ],
      "matrix": [
        1.0,
        0.0,
        0.0,
        0.0,
        0.0,
        2.220446049250313e-16,
        -1.0,
        0.0,
        0.0,
        1.0,
        2.220446049250313e-16,
        0.0,
        0.0,
        0.0,
        0.0,
        1.0
      ],
      "name": "Sketchfab_model"
    },
    {
      "children": [
        2
      ],
      "matrix": [
        1.0,
        0.0,
        0.0,
        0.0,
        0.0,
        0.0,
        1.0,
        0.0,
        0.0,
        -1.0,
        0.0,
        0.0,
        0.0,
        0.0,
        0.0,
        1.0
      ],
      "name": "e329aa7501d248a4851458ecba674d6e.fbx"
    },
    {
      "children": [
        3
      ],
      "name": "RootNode"
    },
    {
      "children": [
        4,
        6,
        5
      ],
      "name": "Object_3"
    },
    {
      "children": [
        7
      ],
      "name": "_rootJoint"
    },
    {
      "matrix": [
        0.8183797978574405,
        0.11399175276713962,
        0.563258720979877,
        0.0,
        0.013553380588924656,
        0.9760285886986507,
        -0.21721993443864862,
        0.0,
        -0.5745178955728221,
        0.1854024658519792,
        0.7972171055130345,
        0.0,
        19.925812961175996,
        0.671474925848095,
        -2.2972548451655754,
        1.0
      ],
      "name": "Object_5"
    },
    {
      "mesh": 0,
      "name": "Object_6",
      "skin": 0
    },
    {
      "children": [
        8,
        32
      ],
      "name": "chest_01",
      "translation": [
        0.0,
        11.876830101013184,
        -22.226486206054688
      ]
    },
    {
      "children": [
        9
      ],
      "name": "L_arm_02",
      "rotation": [
        0.24459457397460938,
        0.9379518628120422,
        0.14814598858356476,
        -0.19614429771900177
      ],
      "translation": [
        16.380353927612305,
        -5.369189739227295,
        4.27164888381958
      ]
    },
    {
      "children": [
        10
      ],
      "name": "L_elbow_03",
      "rotation": [
        -0.014801494777202606,
        -0.2331364005804062,
        0.1776150017976761,
        0.955971360206604
      ],
      "translation": [
        7.105427357601002e-15,
        3.552713678800501e-15,
        -21.15455436706543
      ]
    },
    {
      "children": [
        11,
        15,
        19,
        23
      ],
      "name": "L_wrist_04",
      "rotation": [
        -0.07945635169744492,
        -0.44867295026779175,
        -0.06809716671705246,
        0.8875483274459839
      ],
      "translation": [
        -5.3290705182007514e-15,
        1.0658141036401503e-14,
        -23.992475509643555
      ]
    },
    {
      "children": [
        12
      ],
      "name": "L_thumb1_05",
      "rotation": [
        -0.05115571618080139,
        0.03900693729519844,
        -0.5740616917610168,
        0.8162810206413269
      ],
      "translation": [
        0.1320032924413681,
        -0.3523859977722168,
        -4.772005081176758
      ]
    },
    {
      "children": [
        13
      ],
      "name": "L_thumb2_06",
      "rotation": [
        -0.06813102215528488,
        0.033443909138441086,
        -0.04160880297422409,
        0.9962471723556519
      ],
      "translation": [
        -0.022268766537308693,
        -0.11121568083763123,
        -4.14096736907959
      ]
    },
    {
      "children": [
        14
      ],
      "name": "L_thumb3_07",
      "rotation": [
        -0.0625290796160698,
        -0.020218875259160995,
        0.015477754175662994,
        0.9977182745933533
      ],
      "translation": [
        -1.4210854715202004e-14,
        -3.552713678800501e-15,
        -3.148484706878662
      ]
    },
    {
      "name": "L_thumb4_08",
      "rotation": [
        -0.03496495261788368,
        -0.013685823418200016,
        0.046641163527965546,
        0.9982057809829712
      ],
      "translation": [
        -1.0658141036401503e-14,
        1.0658141036401503e-14,
        -3.3087756633758545
      ]
    },
    {
      "children": [
        16
      ],
      "name": "L_point1_09",
      "rotation": [
        0.032430294901132584,
        0.39574500918388367,
        0.11497856676578522,
        0.9105571508407593
      ],
      "translation": [
        -5.515398025512695,
        3.357240915298462,
        -8.602354049682617
      ]
    },
    {
      "children": [
        17
      ],
      "name": "L_point2_00",
      "rotation": [
        -0.0892152413725853,
        0.01577746868133545,
        -0.027394017204642296,
        0.9955105781555176
      ],
      "translation": [
        -0.14295020699501038,
        -0.03683456778526306,
        -4.051708698272705
      ]
    },
    {
      "children": [
        18
      ],
      "name": "L_point3_010",
      "rotation": [
        -0.09555748105049133,
        0.010501952841877937,
        0.032428398728370667,
        0.994840145111084
      ],
      "translation": [
        -3.552713678800501e-15,
        -7.105427357601002e-15,
        -2.7195959091186523
      ]
    },
    {
      "name": "L_point4_011",
      "rotation": [
        0.007044405676424503,
        0.0030781885143369436,
        -0.07212157547473907,
        0.9973662495613098
      ],
      "translation": [
        3.552713678800501e-15,
        0.0,
        -2.630131483078003
      ]
    },
    {
      "children": [
        20
      ],
      "name": "L_middle1_012",
      "rotation": [
        -0.01908695697784424,
        0.3996177315711975,
        0.1645892858505249,
        0.9015828967094421
      ],
      "translation": [
        -7.144582271575928,
        3.3544576168060303,
        -6.321605682373047
      ]
    },
    {
      "children": [
        21
      ],
      "name": "L_middle2_013",
      "rotation": [
        -0.11661238968372345,
        0.018954124301671982,
        -0.02858700044453144,
        0.9925850629806519
      ],
      "translation": [
        -7.105427357601002e-15,
        -3.552713678800501e-15,
        -4.398378849029541
      ]
    },
    {
      "children": [
        22
      ],
      "name": "L_middle3_014",
      "rotation": [
        -0.0573439858853817,
        0.029490821063518524,
        0.04090999439358711,
        0.9970799088478088
      ],
      "translation": [
        -7.105427357601002e-15,
        0.0,
        -3.7147109508514404
      ]
    },
    {
      "name": "L_middle4_015",
      "rotation": [
        -0.0037396270781755447,
        -0.03156276047229767,
        -0.0001181000770884566,
        0.9994947910308838
      ],
      "translation": [
        0.16377362608909607,
        -0.019423890858888626,
        -2.590515375137329
      ]
    },
    {
      "children": [
        24,
        28
      ],
      "name": "L_palm_016",
      "rotation": [
        0.11635579913854599,
        0.4476016163825989,
        -0.0936843752861023,
        0.8816674947738647
      ],
      "translation": [
        -5.401004791259766,
        1.1032822132110596,
        -2.290133237838745
      ]
    },
    {
      "children": [
        25
      ],
      "name": "L_ring1_017",
      "rotation": [
        -0.25051841139793396,
        0.015882493928074837,
        0.2411879599094391,
        0.9374521970748901
      ],
      "translation": [
        -3.552713678800501e-15,
        1.3322676295501878e-14,
        -3.8119394779205322
      ]
    },
    {
      "children": [
        26
      ],
      "name": "L_ring2_018",
      "rotation": [
        -0.10605572909116745,
        0.031333837658166885,
        -0.024778448045253754,
        0.9935574531555176
      ],
      "translation": [
        -0.0072608389891684055,
        0.05611813813447952,
        -3.7844748497009277
      ]
    },
    {
      "children": [
        27
      ],
      "name": "L_ring3_019",
      "rotation": [
        -0.1801183819770813,
        -0.042017895728349686,
        -0.048472970724105835,
        0.981550931930542
      ],
      "translation": [
        0.16422520577907562,
        0.009022422134876251,
        -3.0439188480377197
      ]
    },
    {
      "name": "L_ring4_020",
      "rotation": [
        -0.00026074066408909857,
        -0.006018305197358131,
        0.02467474900186062,
        0.9996773600578308
      ],
      "translation": [
        5.3290705182007514e-15,
        -1.4210854715202004e-14,
        -2.3921756744384766
      ]
    },
    {
      "children": [
        29
      ],
      "name": "L_pink1_021",
      "rotation": [
        -0.1600981205701828,
        0.03380129113793373,
        0.22537441551685333,
        0.9604334831237793
      ],
      "translation": [
        -1.8161855936050415,
        -1.6944628953933716,
        -2.6353936195373535
      ]
    },
    {
      "children": [
        30
      ],
      "name": "L_pink2_022",
      "rotation": [
        -0.2543376386165619,
        -0.009684385731816292,
        0.030355103313922882,
        0.9665904641151428
      ],
      "translation": [
        -8.881784197001252e-15,
        -3.552713678800501e-15,
        -2.731027603149414
      ]
    },
    {
      "children": [
        31
      ],
      "name": "L_pink3_023",
      "rotation": [
        -0.17439426481723785,
        0.038347113877534866,
        0.011224153451621532,
        0.9838649034500122
      ],
      "translation": [
        1.7763568394002505e-15,
        1.4210854715202004e-14,
        -2.1979033946990967
      ]
    },
    {
      "name": "L_pink4_024",
      "rotation": [
        -8.489600319125986e-15,
        2.872012909035883e-16,
        -0.016660934314131737,
        0.9998612999916077
      ],
      "translation": [
        -1.7763568394002505e-15,
        1.4210854715202004e-14,
        -2.222898006439209
      ]
    },
    {
      "children": [
        33
      ],
      "name": "R_arm_025",
      "rotation": [
        -0.1515289843082428,
        0.9573272466659546,
        0.1476539671421051,
        0.19688034057617188
      ],
      "translation": [
        -16.380353927612305,
        -5.369189739227295,
        4.27164888381958
      ]
    },
    {
      "children": [
        34
      ],
      "name": "R_elbow_026",
      "rotation": [
        -0.027501435950398445,
        0.25943443179130554,
        -0.2162344753742218,
        0.9408401250839233
      ],
      "translation": [
        -3.552713678800501e-15,
        1.7763568394002505e-15,
        -21.15455436706543
      ]
    },
    {
      "children": [
        35,
        39,
        43,
        47
      ],
      "name": "R_wrist_027",
      "rotation": [
        -0.04941407963633537,
        0.4335012435913086,
        0.04005369544029236,
        0.8989052176475525
      ],
      "translation": [
        -7.105427357601002e-15,
        -3.552713678800501e-15,
        -23.992475509643555
      ]
    },
    {
      "children": [
        36
      ],
      "name": "R_thumb1_028",
      "rotation": [
        -0.05115571618080139,
        -0.03900693729519844,
        0.5740616917610168,
        0.8162810206413269
      ],
      "translation": [
        -0.1320032924413681,
        -0.3523859977722168,
        -4.772005081176758
      ]
    },
    {
      "children": [
        37
      ],
      "name": "R_thumb2_029",
      "rotation": [
        -0.06813102215528488,
        -0.033443909138441086,
        0.04160880297422409,
        0.9962471723556519
      ],
      "translation": [
        0.022268766537308693,
        -0.11121568083763123,
        -4.14096736907959
      ]
    },
    {
      "children": [
        38
      ],
      "name": "R_thumb3_030",
      "rotation": [
        -0.0625290796160698,
        0.020218875259160995,
        -0.015477754175662994,
        0.9977182745933533
      ],
      "translation": [
        1.4210854715202004e-14,
        -1.4210854715202004e-14,
        -3.148484706878662
      ]
    },
    {
      "name": "R_thumb4_031",
      "rotation": [
        -0.03496495261788368,
        0.013685823418200016,
        -0.046641163527965546,
        0.9982057809829712
      ],
      "translation": [
        1.0658141036401503e-14,
        0.0,
        -3.3087756633758545
      ]
    },
    {
      "children": [
        40
      ],
      "name": "R_point1_032",
      "rotation": [
        0.032430294901132584,
        -0.39574500918388367,
        -0.11497856676578522,
        0.9105571508407593
      ],
      "translation": [
        5.515398025512695,
        3.357240915298462,
        -8.602354049682617
      ]
    },
    {
      "children": [
        41
      ],
      "name": "R_point2_033",
      "rotation": [
        -0.0892152413725853,
        -0.01577746868133545,
        0.027394017204642296,
        0.9955105781555176
      ],
      "translation": [
        0.14295020699501038,
        -0.03683456778526306,
        -4.051708698272705
      ]
    },
    {
      "children": [
        42
      ],
      "name": "R_point3_034",
      "rotation": [
        -0.09555748105049133,
        -0.010501952841877937,
        -0.032428398728370667,
        0.994840145111084
      ],
      "translation": [
        1.5987211554602254e-14,
        0.0,
        -2.7195959091186523
      ]
    },
    {
      "name": "R_point4_035",
      "rotation": [
        0.007044405676424503,
        -0.0030781885143369436,
        0.07212157547473907,
        0.9973662495613098
      ],
      "translation": [
        -7.105427357601002e-15,
        -7.105427357601002e-15,
        -2.630131483078003
      ]
    },
    {
      "children": [
        44
      ],
      "name": "R_middle1_036",
      "rotation": [
        -0.01908695697784424,
        -0.3996177315711975,
        -0.1645892858505249,
        0.9015828967094421
      ],
      "translation": [
        7.144582271575928,
        3.3544576168060303,
        -6.321605682373047
      ]
    },
    {
      "children": [
        45
      ],
      "name": "R_middle2_037",
      "rotation": [
        -0.11661238968372345,
        -0.018954124301671982,
        0.02858700044453144,
        0.9925850629806519
      ],
      "translation": [
        1.2434497875801753e-14,
        0.0,
        -4.398378849029541
      ]
    },
    {
      "children": [
        46
      ],
      "name": "R_middle3_038",
      "rotation": [
        -0.0573439858853817,
        -0.029490821063518524,
        -0.04090999439358711,
        0.9970799088478088
      ],
      "translation": [
        5.3290705182007514e-15,
        0.0,
        -3.7147109508514404
      ]
    },
    {
      "name": "R_middle4_039",
      "rotation": [
        -0.0037396273110061884,
        0.03156276047229767,
        0.00011809264833573252,
        0.9994947910308838
      ],
      "translation": [
        -0.16377362608909607,
        -0.019423890858888626,
        -2.590515375137329
      ]
    },
    {
      "children": [
        48,
        52
      ],
      "name": "R_palm_040",
      "rotation": [
        0.11635579913854599,
        -0.4476016163825989,
        0.0936843752861023,
        0.8816674947738647
      ],
      "translation": [
        5.401004791259766,
        1.1032822132110596,
        -2.290133237838745
      ]
    },
    {
      "children": [
        49
      ],
      "name": "R_ring1_041",
      "rotation": [
        -0.25051841139793396,
        -0.015882493928074837,
        -0.2411879599094391,
        0.9374521970748901
      ],
      "translation": [
        -1.0658141036401503e-14,
        3.552713678800501e-15,
        -3.8119394779205322
      ]
    },
    {
      "children": [
        50
      ],
      "name": "R_ring2_042",
      "rotation": [
        -0.10605572909116745,
        -0.031333837658166885,
        0.024778448045253754,
        0.9935574531555176
      ],
      "translation": [
        0.0072608389891684055,
        0.05611813813447952,
        -3.7844748497009277
      ]
    },
    {
      "children": [
        51
      ],
      "name": "R_ring3_043",
      "rotation": [
        -0.1801183819770813,
        0.042017895728349686,
        0.048472970724105835,
        0.981550931930542
      ],
      "translation": [
        -0.16422520577907562,
        0.009022422134876251,
        -3.0439188480377197
      ]
    },
    {
      "name": "R_ring4_044",
      "rotation": [
        -0.00026074066408909857,
        0.006018305197358131,
        -0.02467474900186062,
        0.9996773600578308
      ],
      "translation": [
        -1.7763568394002505e-15,
        -3.552713678800501e-14,
        -2.3921756744384766
      ]
    },
    {
      "children": [
        53
      ],
      "name": "R_pink1_045",
      "rotation": [
        -0.1600981205701828,
        -0.03380129113793373,
        -0.22537441551685333,
        0.9604334831237793
      ],
      "translation": [
        1.8161855936050415,
        -1.6944628953933716,
        -2.6353936195373535
      ]
    },
    {
      "children": [
        54
      ],
      "name": "R_pink2_046",
      "rotation": [
        -0.2543376386165619,
        0.009684385731816292,
        -0.030355103313922882,
        0.9665904641151428
      ],
      "translation": [
        0.0,
        7.105427357601002e-15,
        -2.731027603149414
      ]
    },
    {
      "children": [
        55
      ],
      "name": "R_pink3_047",
      "rotation": [
        -0.17439426481723785,
        -0.038347113877534866,
        -0.011224153451621532,
        0.9838649034500122
      ],
      "translation": [
        -3.552713678800501e-15,
        -1.4210854715202004e-14,
        -2.1979033946990967
      ]
    },
    {
      "name": "R_pink4_048",
      "rotation": [
        -8.179354173403364e-15,
        1.085120356200328e-15,
        0.016660934314131737,
        0.9998612999916077
      ],
      "translation": [
        1.7763568394002505e-15,
        2.842170943040401e-14,
        -2.222898006439209
      ]
    }
  ],
  "samplers": [
    {
      "magFilter": 9729,
      "minFilter": 9987,
      "wrapS": 10497,
      "wrapT": 10497
    }
  ],
  "scene": 0,
  "scenes": [
    {
      "name": "Sketchfab_Scene",
      "nodes": [
        0
      ]
    }
  ],
  "skins": [
    {
      "inverseBindMatrices": 5,
      "joints": [
        4,
        7,
        8,
        9,
        10,
        11,
        12,
        13,
        14,
        15,
        16,
        17,
        18,
        19,
        20,
        21,
        22,
        23,
        24,
        25,
        26,
        27,
        28,
        29,
        30,
        31,
        32,
        33,
        34,
        35,
        36,
        37,
        38,
        39,
        40,
        41,
        42,
        43,
        44,
        45,
        46,
        47,
        48,
        49,
        50,
        51,
        52,
        53,
        54,
        55
      ],
      "skeleton": 4
    }
  ],
  "textures": [
    {
      "sampler": 0,
      "source": 0
    },
    {
      "sampler": 0,
      "source": 1
    },
    {
      "sampler": 0,
      "source": 2
    }
  ]
}
